<mxfile host="app.diagrams.net" modified="2024-03-04T15:23:42.525Z" agent="Mozilla/5.0 (Windows NT 10.0; Win64; x64) AppleWebKit/537.36 (KHTML, like Gecko) Chrome/122.0.0.0 Safari/537.36 Edg/122.0.0.0" etag="wAZJhlUOcdWtIM673hti" version="23.1.8" type="device">
  <diagram name="PÃ¡gina-1" id="U2VhMtlbsO6vC_aPyXP3">
    <mxGraphModel dx="1002" dy="569" grid="1" gridSize="10" guides="1" tooltips="1" connect="1" arrows="1" fold="1" page="1" pageScale="1" pageWidth="827" pageHeight="1169" math="0" shadow="0">
      <root>
        <mxCell id="0" />
        <mxCell id="1" parent="0" />
        <mxCell id="pCav3h6kSwlkK1_7hhaA-18" style="edgeStyle=orthogonalEdgeStyle;rounded=0;orthogonalLoop=1;jettySize=auto;html=1;exitX=0;exitY=0.5;exitDx=0;exitDy=0;entryX=0.25;entryY=0;entryDx=0;entryDy=0;" edge="1" parent="1" source="pCav3h6kSwlkK1_7hhaA-1" target="pCav3h6kSwlkK1_7hhaA-4">
          <mxGeometry relative="1" as="geometry" />
        </mxCell>
        <mxCell id="pCav3h6kSwlkK1_7hhaA-25" style="edgeStyle=orthogonalEdgeStyle;rounded=0;orthogonalLoop=1;jettySize=auto;html=1;exitX=0.75;exitY=1;exitDx=0;exitDy=0;entryX=1;entryY=1;entryDx=0;entryDy=0;" edge="1" parent="1" source="pCav3h6kSwlkK1_7hhaA-1" target="pCav3h6kSwlkK1_7hhaA-1">
          <mxGeometry relative="1" as="geometry">
            <mxPoint x="400" y="230" as="targetPoint" />
            <Array as="points">
              <mxPoint x="400" y="240" />
              <mxPoint x="430" y="240" />
            </Array>
          </mxGeometry>
        </mxCell>
        <mxCell id="pCav3h6kSwlkK1_7hhaA-1" value="Refree" style="rounded=0;whiteSpace=wrap;html=1;" vertex="1" parent="1">
          <mxGeometry x="310" y="160" width="120" height="60" as="geometry" />
        </mxCell>
        <mxCell id="pCav3h6kSwlkK1_7hhaA-9" style="edgeStyle=orthogonalEdgeStyle;rounded=0;orthogonalLoop=1;jettySize=auto;html=1;exitX=0.75;exitY=0;exitDx=0;exitDy=0;entryX=0.75;entryY=0;entryDx=0;entryDy=0;" edge="1" parent="1" source="pCav3h6kSwlkK1_7hhaA-3" target="pCav3h6kSwlkK1_7hhaA-1">
          <mxGeometry relative="1" as="geometry" />
        </mxCell>
        <mxCell id="pCav3h6kSwlkK1_7hhaA-10" style="edgeStyle=orthogonalEdgeStyle;rounded=0;orthogonalLoop=1;jettySize=auto;html=1;exitX=0;exitY=0.75;exitDx=0;exitDy=0;entryX=1;entryY=0.75;entryDx=0;entryDy=0;" edge="1" parent="1" source="pCav3h6kSwlkK1_7hhaA-3" target="pCav3h6kSwlkK1_7hhaA-4">
          <mxGeometry relative="1" as="geometry" />
        </mxCell>
        <mxCell id="pCav3h6kSwlkK1_7hhaA-3" value="Coach" style="rounded=0;whiteSpace=wrap;html=1;" vertex="1" parent="1">
          <mxGeometry x="550" y="340" width="120" height="60" as="geometry" />
        </mxCell>
        <mxCell id="pCav3h6kSwlkK1_7hhaA-15" style="edgeStyle=orthogonalEdgeStyle;rounded=0;orthogonalLoop=1;jettySize=auto;html=1;exitX=1;exitY=0.25;exitDx=0;exitDy=0;entryX=0;entryY=0.25;entryDx=0;entryDy=0;" edge="1" parent="1" source="pCav3h6kSwlkK1_7hhaA-4" target="pCav3h6kSwlkK1_7hhaA-3">
          <mxGeometry relative="1" as="geometry" />
        </mxCell>
        <mxCell id="pCav3h6kSwlkK1_7hhaA-22" style="edgeStyle=orthogonalEdgeStyle;rounded=0;orthogonalLoop=1;jettySize=auto;html=1;exitX=0.5;exitY=0;exitDx=0;exitDy=0;entryX=0;entryY=0.75;entryDx=0;entryDy=0;" edge="1" parent="1" source="pCav3h6kSwlkK1_7hhaA-4" target="pCav3h6kSwlkK1_7hhaA-1">
          <mxGeometry relative="1" as="geometry" />
        </mxCell>
        <mxCell id="pCav3h6kSwlkK1_7hhaA-4" value="Participant" style="rounded=0;whiteSpace=wrap;html=1;" vertex="1" parent="1">
          <mxGeometry x="90" y="340" width="120" height="60" as="geometry" />
        </mxCell>
        <mxCell id="pCav3h6kSwlkK1_7hhaA-5" style="edgeStyle=orthogonalEdgeStyle;rounded=0;orthogonalLoop=1;jettySize=auto;html=1;exitX=1;exitY=0.5;exitDx=0;exitDy=0;entryX=0.1;entryY=0.033;entryDx=0;entryDy=0;entryPerimeter=0;" edge="1" parent="1" source="pCav3h6kSwlkK1_7hhaA-1" target="pCav3h6kSwlkK1_7hhaA-3">
          <mxGeometry relative="1" as="geometry" />
        </mxCell>
        <mxCell id="pCav3h6kSwlkK1_7hhaA-6" value="2 - call Trial (block Refree&lt;br&gt;)" style="text;html=1;align=center;verticalAlign=middle;whiteSpace=wrap;rounded=0;" vertex="1" parent="1">
          <mxGeometry x="500" y="240" width="60" height="30" as="geometry" />
        </mxCell>
        <mxCell id="pCav3h6kSwlkK1_7hhaA-7" style="edgeStyle=orthogonalEdgeStyle;rounded=0;orthogonalLoop=1;jettySize=auto;html=1;exitX=0;exitY=0;exitDx=0;exitDy=0;entryX=0.25;entryY=0;entryDx=0;entryDy=0;" edge="1" parent="1" source="pCav3h6kSwlkK1_7hhaA-1" target="pCav3h6kSwlkK1_7hhaA-1">
          <mxGeometry relative="1" as="geometry">
            <Array as="points">
              <mxPoint x="310" y="140" />
              <mxPoint x="340" y="140" />
            </Array>
          </mxGeometry>
        </mxCell>
        <mxCell id="pCav3h6kSwlkK1_7hhaA-8" value="1 - anounceNewGame&amp;nbsp;" style="text;html=1;align=center;verticalAlign=middle;whiteSpace=wrap;rounded=0;" vertex="1" parent="1">
          <mxGeometry x="300" y="110" width="60" height="30" as="geometry" />
        </mxCell>
        <mxCell id="pCav3h6kSwlkK1_7hhaA-11" value="3 -callContestent (block Coach" style="text;html=1;align=center;verticalAlign=middle;whiteSpace=wrap;rounded=0;" vertex="1" parent="1">
          <mxGeometry x="320" y="390" width="60" height="30" as="geometry" />
        </mxCell>
        <mxCell id="pCav3h6kSwlkK1_7hhaA-13" value="4 -FollowcoachAdvice (block Participant)" style="text;html=1;align=center;verticalAlign=middle;whiteSpace=wrap;rounded=0;" vertex="1" parent="1">
          <mxGeometry x="120" y="420" width="60" height="30" as="geometry" />
        </mxCell>
        <mxCell id="pCav3h6kSwlkK1_7hhaA-14" style="edgeStyle=orthogonalEdgeStyle;rounded=0;orthogonalLoop=1;jettySize=auto;html=1;exitX=0.25;exitY=1;exitDx=0;exitDy=0;entryX=0.75;entryY=1;entryDx=0;entryDy=0;" edge="1" parent="1" source="pCav3h6kSwlkK1_7hhaA-4" target="pCav3h6kSwlkK1_7hhaA-4">
          <mxGeometry relative="1" as="geometry" />
        </mxCell>
        <mxCell id="pCav3h6kSwlkK1_7hhaA-16" value="4 -FollowcoachAdvice (last on awaes the coach" style="text;html=1;align=center;verticalAlign=middle;whiteSpace=wrap;rounded=0;" vertex="1" parent="1">
          <mxGeometry x="260" y="310" width="60" height="30" as="geometry" />
        </mxCell>
        <mxCell id="pCav3h6kSwlkK1_7hhaA-17" value="5 - informRefree (last one awakes Refree block the coach)&lt;div&gt;&lt;br&gt;&lt;/div&gt;" style="text;html=1;align=center;verticalAlign=middle;whiteSpace=wrap;rounded=0;" vertex="1" parent="1">
          <mxGeometry x="660" y="200" width="60" height="30" as="geometry" />
        </mxCell>
        <mxCell id="pCav3h6kSwlkK1_7hhaA-19" value="6 -Start Trial (blocks refree)" style="text;html=1;align=center;verticalAlign=middle;whiteSpace=wrap;rounded=0;" vertex="1" parent="1">
          <mxGeometry x="120" y="140" width="60" height="30" as="geometry" />
        </mxCell>
        <mxCell id="pCav3h6kSwlkK1_7hhaA-20" style="edgeStyle=orthogonalEdgeStyle;rounded=0;orthogonalLoop=1;jettySize=auto;html=1;exitX=0;exitY=0.75;exitDx=0;exitDy=0;entryX=0;entryY=0.25;entryDx=0;entryDy=0;" edge="1" parent="1" source="pCav3h6kSwlkK1_7hhaA-4" target="pCav3h6kSwlkK1_7hhaA-4">
          <mxGeometry relative="1" as="geometry">
            <Array as="points">
              <mxPoint x="40" y="385" />
              <mxPoint x="40" y="360" />
              <mxPoint x="90" y="360" />
            </Array>
          </mxGeometry>
        </mxCell>
        <mxCell id="pCav3h6kSwlkK1_7hhaA-21" value="7/8 - Do your best/amDone (bloicks participant)" style="text;html=1;align=center;verticalAlign=middle;whiteSpace=wrap;rounded=0;" vertex="1" parent="1">
          <mxGeometry x="20" y="390" width="60" height="30" as="geometry" />
        </mxCell>
        <mxCell id="pCav3h6kSwlkK1_7hhaA-23" value="8 - amDone (awakest the coach)" style="text;html=1;align=center;verticalAlign=middle;whiteSpace=wrap;rounded=0;" vertex="1" parent="1">
          <mxGeometry x="180" y="210" width="60" height="30" as="geometry" />
        </mxCell>
        <mxCell id="pCav3h6kSwlkK1_7hhaA-24" style="edgeStyle=orthogonalEdgeStyle;rounded=0;orthogonalLoop=1;jettySize=auto;html=1;exitX=0;exitY=1;exitDx=0;exitDy=0;entryX=0.44;entryY=1.047;entryDx=0;entryDy=0;entryPerimeter=0;" edge="1" parent="1" source="pCav3h6kSwlkK1_7hhaA-1" target="pCav3h6kSwlkK1_7hhaA-1">
          <mxGeometry relative="1" as="geometry" />
        </mxCell>
        <mxCell id="pCav3h6kSwlkK1_7hhaA-26" value="9 -assertTrialDecision (awaes the coach)" style="text;html=1;align=center;verticalAlign=middle;whiteSpace=wrap;rounded=0;" vertex="1" parent="1">
          <mxGeometry x="270" y="240" width="60" height="30" as="geometry" />
        </mxCell>
        <mxCell id="pCav3h6kSwlkK1_7hhaA-27" value="10 -&amp;nbsp;declareMatchWinner" style="text;html=1;align=center;verticalAlign=middle;whiteSpace=wrap;rounded=0;" vertex="1" parent="1">
          <mxGeometry x="390" y="240" width="60" height="30" as="geometry" />
        </mxCell>
      </root>
    </mxGraphModel>
  </diagram>
</mxfile>
